# xmcd CD database file
#
# Track frame offsets:
#	150
#	15272
#	25053
#	52815
#	69414
#	83448
#	102222
#	109272
#	131639
#	146490
#	157157
#
# Disc length: 2430 seconds
#
# Revision: 0
# Processed by: cddbd v1.5.2PL0 Copyright (c) Steve Scherf et al.
# Submitted via: CDex 1.51
#
DISCID=81097c0b
DTITLE=Ilsa Huizinga - Voices within
DYEAR=1998
DGENRE=Jazz
TTITLE0=Foolin' myself
TTITLE1=Some other time
TTITLE2=I should care
TTITLE3=Better than anything
TTITLE4=But beautiful
TTITLE5=Day by day
TTITLE6=Only trust your heart
TTITLE7=Waltz for Debby
TTITLE8=Social call
TTITLE9=Quiet now
TTITLE10=Almost like being in love
EXTD=YEAR: 1998
EXTT0=
EXTT1=
EXTT2=
EXTT3=
EXTT4=
EXTT5=
EXTT6=
EXTT7=
EXTT8=
EXTT9=
EXTT10=
PLAYORDER=
